<svg xmlns="http://www.w3.org/2000/svg" viewBox="0 11.940000534057617 201.02999877929688 37.55000686645508" data-asc="0.98974609375" width="201.02999877929688" height="37.55000686645508"><defs/><g fill="#ffffff"><g transform="translate(0, 0)"><path d="M34.35 20.83L20.36 20.83L20.36 49.49L14.01 49.49L14.01 20.83L0 20.83L0 14.48L34.35 14.48L34.35 20.83ZM67.65 49.49L61.30 49.49L61.30 31.98Q61.30 30.74 60.67 30.09Q60.03 29.44 58.76 29.44L47.31 29.44L47.31 23.10L58.76 23.10Q59.67 23.10 60.67 23.30Q61.67 23.51 62.66 23.95Q63.65 24.39 64.55 25.09Q65.45 25.78 66.14 26.77Q66.82 27.76 67.24 29.05Q67.65 30.35 67.65 31.98L67.65 49.49M44.75 49.49L38.40 49.49L38.40 11.94L44.75 11.94L44.75 49.49ZM100.71 40.75Q100.71 42.07 100.24 43.59Q99.78 45.12 98.74 46.42Q97.71 47.73 96.03 48.61Q94.36 49.49 91.97 49.49L80.52 49.49Q79.20 49.49 77.67 49.02Q76.15 48.56 74.84 47.52Q73.54 46.48 72.66 44.81Q71.78 43.14 71.78 40.75Q71.78 39.43 72.24 37.89Q72.71 36.35 73.74 35.05Q74.78 33.74 76.45 32.86Q78.13 31.98 80.52 31.98L91.97 31.98L91.97 38.04L80.52 38.04Q79.22 38.04 78.52 38.83Q77.81 39.62 77.81 40.80Q77.81 42.04 78.63 42.74Q79.44 43.43 80.57 43.43L91.97 43.43Q93.26 43.43 93.97 42.65Q94.68 41.87 94.68 40.70L94.68 31.84Q94.68 30.59 93.91 29.86Q93.14 29.13 91.97 29.13L78.03 29.13L78.03 23.10L91.97 23.10Q93.29 23.10 94.81 23.56Q96.34 24.02 97.64 25.06Q98.95 26.10 99.83 27.77Q100.71 29.44 100.71 31.84L100.71 40.75ZM135.38 49.49L129.03 49.49L129.03 34.84Q129.03 33.59 128.60 32.60Q128.17 31.62 127.44 30.91Q126.71 30.20 125.72 29.82Q124.73 29.44 123.58 29.44L112.48 29.44L112.48 49.49L106.13 49.49L106.13 26.25Q106.13 25.59 106.37 25.01Q106.62 24.44 107.06 24.01Q107.50 23.58 108.08 23.34Q108.67 23.10 109.33 23.10L123.63 23.10Q124.83 23.10 126.16 23.36Q127.49 23.63 128.80 24.23Q130.10 24.83 131.29 25.74Q132.47 26.66 133.39 27.97Q134.30 29.27 134.84 30.98Q135.38 32.69 135.38 34.84L135.38 49.49ZM171.95 49.49L162.79 49.49L150 37.13Q148.93 36.16 149.00 34.69Q149.05 34.01 149.35 33.41Q149.66 32.81 150.20 32.40L161.79 23.05L171.95 23.05L157.01 35.08L171.95 49.49M147.39 49.49L141.04 49.49L141.04 11.94L147.39 11.94L147.39 49.49ZM201.03 40.58Q201.03 42.21 200.61 43.52Q200.20 44.82 199.51 45.81Q198.83 46.80 197.92 47.50Q197.02 48.19 196.03 48.63Q195.04 49.07 194.03 49.28Q193.02 49.49 192.11 49.49L174.93 49.49L174.93 43.14L192.07 43.14Q193.36 43.14 194.02 42.48Q194.68 41.82 194.68 40.58Q194.56 38.04 192.11 38.04L182.28 38.04Q180.18 38.04 178.71 37.30Q177.25 36.57 176.33 35.47Q175.42 34.38 175.01 33.11Q174.61 31.84 174.61 30.74Q174.61 28.61 175.37 27.16Q176.12 25.71 177.27 24.80Q178.42 23.90 179.76 23.50Q181.10 23.10 182.28 23.10L197.88 23.10L197.88 29.44L182.32 29.44Q181.84 29.44 181.56 29.55Q181.27 29.66 181.14 29.85Q181.01 30.03 180.98 30.24Q180.96 30.44 180.96 30.64Q180.98 31.03 181.10 31.25Q181.23 31.47 181.41 31.57Q181.59 31.67 181.82 31.68Q182.06 31.69 182.28 31.69L192.11 31.69Q194.56 31.69 196.26 32.57Q197.97 33.45 199.02 34.78Q200.07 36.11 200.55 37.67Q201.03 39.23 201.03 40.58Z"/></g></g></svg>