<?xml version="1.0" encoding="utf-8"?>
<svg fill="#000000" xmlns="http://www.w3.org/2000/svg" width="800px" height="800px" viewBox="0 0 52 52" enable-background="new 0 0 52 52" xmlns:bx="https://boxy-svg.com"><defs><linearGradient id="gradient-3" bx:pinned="true"><stop offset="0.84" style="stop-color: rgb(48, 236, 207);"/></linearGradient><linearGradient id="gradient-3-0" href="#gradient-3" gradientUnits="userSpaceOnUse" x1="26.037" y1="7.45" x2="26.037" y2="26.45" gradientTransform="matrix(1, 0, 0, 1, 0, -1)"/><linearGradient id="gradient-3-1" href="#gradient-3" gradientUnits="userSpaceOnUse" x1="26.037" y1="25.55" x2="26.037" y2="44.55" gradientTransform="matrix(1, 0, 0, 1, 0, 1)"/><linearGradient id="gradient-3-2" href="#gradient-3" gradientUnits="userSpaceOnUse" x1="26" y1="16.5" x2="26" y2="35.5"/><bx:export><bx:file format="svg" path="제목 없음.svg"/></bx:export></defs><g><g><path d="M 11.4 20.6 L 24.9 6.9 C 25.5 6.3 26.5 6.3 27.1 6.9 L 40.6 20.6 C 41.2 21.2 41.2 22.2 40.6 22.8 L 38.4 25 C 37.8 25.6 36.8 25.6 36.2 25 L 27.1 15.6 C 26.5 15 25.5 15 24.9 15.6 L 15.8 24.9 C 15.2 25.5 14.2 25.5 13.6 24.9 L 11.4 22.7 C 10.9 22.1 10.9 21.2 11.4 20.6 Z" style="paint-order: fill; fill: url(&quot;#gradient-3-0&quot;);"/><path d="M 11.4 40.7 L 24.9 27 C 25.5 26.4 26.5 26.4 27.1 27 L 40.6 40.7 C 41.2 41.3 41.2 42.3 40.6 42.9 L 38.4 45.1 C 37.8 45.7 36.8 45.7 36.2 45.1 L 27.1 35.7 C 26.5 35.1 25.5 35.1 24.9 35.7 L 15.8 45 C 15.2 45.6 14.2 45.6 13.6 45 L 11.4 42.8 C 10.9 42.2 10.9 41.2 11.4 40.7 Z" style="paint-order: fill; fill: url(&quot;#gradient-3-1&quot;);"/><path d="M 11.362 30.65 L 24.862 16.95 C 25.462 16.35 26.462 16.35 27.062 16.95 L 40.562 30.65 C 41.162 31.25 41.162 32.25 40.562 32.85 L 38.362 35.05 C 37.762 35.65 36.762 35.65 36.162 35.05 L 27.062 25.65 C 26.462 25.05 25.462 25.05 24.862 25.65 L 15.762 34.95 C 15.162 35.55 14.162 35.55 13.562 34.95 L 11.362 32.75 C 10.862 32.15 10.862 31.25 11.362 30.65 Z" style="stroke-width: 1; paint-order: fill; fill: url(&quot;#gradient-3-2&quot;);"/></g></g></svg>